<svg width="16" height="18" viewBox="0 0 16 18" fill="none" xmlns="http://www.w3.org/2000/svg">
<path d="M7.99958 0C9.60626 0 10.9158 1.27218 10.9758 2.86417L10.978 2.97842H14.7334C15.091 2.97842 15.3809 3.2683 15.3809 3.6259C15.3809 3.96114 15.1261 4.23688 14.7996 4.27004L14.7334 4.27338H14.1683L13.2861 15.9642C13.1994 17.1125 12.2424 18 11.0909 18H4.9083C3.75675 18 2.79977 17.1125 2.71311 15.9642L1.83037 4.27338H1.26577C0.930523 4.27338 0.654787 4.0186 0.621629 3.6921L0.618286 3.6259C0.618286 3.29065 0.87307 3.01492 1.19957 2.98176L1.26577 2.97842H5.02116C5.02116 1.33348 6.35465 0 7.99958 0ZM12.8697 4.27338H3.12943L4.0044 15.8668C4.04008 16.3396 4.43413 16.705 4.9083 16.705H11.0909C11.565 16.705 11.9591 16.3396 11.9948 15.8668L12.8697 4.27338ZM9.68303 6.99281C10.0183 6.99281 10.294 7.24759 10.3272 7.57409L10.3305 7.64029V13.3381C10.3305 13.6957 10.0406 13.9856 9.68303 13.9856C9.34779 13.9856 9.07205 13.7308 9.0389 13.4043L9.03555 13.3381V7.64029C9.03555 7.28269 9.32544 6.99281 9.68303 6.99281ZM6.31613 6.99281C6.65137 6.99281 6.92711 7.24759 6.96027 7.57409L6.96361 7.64029V13.3381C6.96361 13.6957 6.67372 13.9856 6.31613 13.9856C5.98088 13.9856 5.70515 13.7308 5.67199 13.4043L5.66865 13.3381V7.64029C5.66865 7.28269 5.95853 6.99281 6.31613 6.99281ZM7.99958 1.29496C7.1019 1.29496 6.36832 1.99759 6.31879 2.88289L6.31613 2.97842H9.68303C9.68303 2.04867 8.92933 1.29496 7.99958 1.29496Z" fill="#A85EAD"/>
</svg>
