<svg width="22" height="21" viewBox="0 0 22 21" fill="none" xmlns="http://www.w3.org/2000/svg">
<path d="M1 1L2.60394 1.34683C3.13728 1.46216 3.53418 1.91012 3.58443 2.45347L3.8 4.78418M3.8 4.78418L4.87657 14.484C4.94684 15.1171 5.48195 15.5961 6.11894 15.5961H16.7606C17.7789 15.5961 18.6625 14.8935 18.8919 13.9014L20.5927 6.54552C20.801 5.6446 20.1169 4.78418 19.1922 4.78418H3.8Z" stroke="#A85EAD" stroke-width="1.5" stroke-linecap="round"/>
<path d="M7.66569 7.4935H4.99902" stroke="#A85EAD" stroke-width="1.5" stroke-linecap="round" stroke-linejoin="round"/>
<path d="M8.6875 19.3782C8.6875 20.1247 8.13331 20.6875 7.5 20.6875C6.86669 20.6875 6.3125 20.1247 6.3125 19.3782C6.3125 18.6317 6.86669 18.0689 7.5 18.0689C8.13331 18.0689 8.6875 18.6317 8.6875 19.3782Z" fill="#A85EAD" stroke="#A85EAD" stroke-width="0.625"/>
<path d="M17.6865 19.3782C17.6865 20.1247 17.1323 20.6875 16.499 20.6875C15.8657 20.6875 15.3115 20.1247 15.3115 19.3782C15.3115 18.6317 15.8657 18.0689 16.499 18.0689C17.1323 18.0689 17.6865 18.6317 17.6865 19.3782Z" fill="#A85EAD" stroke="#A85EAD" stroke-width="0.625"/>
</svg>
